<svg xmlns="http://www.w3.org/2000/svg" xmlns:xlink="http://www.w3.org/1999/xlink" version="1.1" width="3187.5" 
height="1223.1232546644467" viewBox="0 0 3187.5 1223.1232546644467">
	
	<g transform="scale(9.375) translate(10, 10)">
		<defs id="SvgjsDefs1804"></defs><g id="SvgjsG1805" featureKey="QMusi1-0" transform="matrix(1.1046428085327655,0,0,1.1046428085327655,0,0)" fill="#64ee85"><rect xmlns="http://www.w3.org/2000/svg" x="16.842" y="56.843" fill="#64ee85" width="37.895" height="6.315"></rect><rect xmlns="http://www.w3.org/2000/svg" x="16.842" y="37.895" fill="#64ee85" width="37.895" height="6.315"></rect><rect xmlns="http://www.w3.org/2000/svg" x="16.842" y="18.948" fill="#64ee85" width="37.895" height="6.315"></rect><path xmlns="http://www.w3.org/2000/svg" fill="#64ee85" d="M86.316,14.738H71.58V4.21c0-2.632-1.578-4.21-4.211-4.21H4.21C1.578,0,0,1.578,0,4.21v77.895  c0,2.634,1.578,4.213,4.21,4.213h14.737v9.474c0,2.632,1.579,4.21,4.211,4.21h63.158c2.633,0,4.211-1.578,4.211-4.21V18.948  C90.527,16.315,88.949,14.738,86.316,14.738z M6.316,77.896V8.421c0-1.316,0.789-2.106,2.105-2.106h54.737  c1.316,0,2.105,0.79,2.105,2.106v69.475c0,1.315-0.789,2.104-2.105,2.104H8.421C7.105,80,6.316,79.211,6.316,77.896z M84.21,91.579  c0,1.316-0.789,2.104-2.104,2.104H28.421c-1.316,0-2.105-0.787-2.105-2.104v-5.264h41.053c2.633,0,4.211-1.578,4.211-4.211V22.106  h10.526c1.315,0,2.104,0.788,2.104,2.104V91.579z"></path></g><g id="SvgjsG1806" featureKey="UyNsn2-0" transform="matrix(2.7203480464828513,0,0,2.7203480464828513,116.30032823932223,19.929329001431448)" fill="#ffffff"><path d="M1.36 5.82 c0.62666 -0.08 1.2534 -0.14334 1.88 -0.19 s1.3 -0.07 2.02 -0.07 c2.5066 0 4.4134 0.61 5.72 1.83 s1.96 3.09 1.96 5.61 c0 2.5066 -0.66666 4.3366 -2 5.49 s-3.3066 1.73 -5.92 1.73 c-0.64 0 -1.2533 -0.02 -1.84 -0.06 s-1.1933 -0.1 -1.82 -0.18 l0 -14.16 z M4.64 17.3 c0.65334 0.06666 1.2734 0.06664 1.86 -0.000019531 s1.1033 -0.25332 1.55 -0.55998 s0.8 -0.76332 1.06 -1.37 s0.39 -1.4167 0.39 -2.43 c0 -0.89334 -0.10334 -1.6267 -0.31 -2.2 s-0.48666 -1.03 -0.84 -1.37 s-0.76 -0.57666 -1.22 -0.71 s-0.94334 -0.2 -1.45 -0.2 l-0.49 0 l-0.55 0.04 l0 8.8 z M19.62 9.44 c0.69334 0 1.34 0.09668 1.94 0.29002 s1.1167 0.50334 1.55 0.93 s0.77334 0.98 1.02 1.66 s0.37 1.5 0.37 2.46 s-0.12334 1.78 -0.37 2.46 s-0.58666 1.2333 -1.02 1.66 s-0.95 0.73666 -1.55 0.93 s-1.2467 0.29 -1.94 0.29 c-0.70666 0 -1.3567 -0.09666 -1.95 -0.29 s-1.1067 -0.50334 -1.54 -0.93 s-0.77334 -0.98 -1.02 -1.66 s-0.37 -1.5 -0.37 -2.46 c0 -0.94666 0.12334 -1.7567 0.37 -2.43 s0.58666 -1.2267 1.02 -1.66 s0.94668 -0.75 1.54 -0.95 s1.2433 -0.3 1.95 -0.3 z M19.62 17.5 c0.6 0 1.07 -0.2 1.41 -0.6 s0.51 -1.1067 0.51 -2.12 s-0.17 -1.7233 -0.51 -2.13 s-0.81 -0.61 -1.41 -0.61 c-0.58666 0 -1.0567 0.21 -1.41 0.63 s-0.53 1.1233 -0.53 2.11 c0 1.0133 0.17334 1.72 0.52 2.12 s0.82 0.6 1.42 0.6 z M34.66 18.88 c-0.53334 0.42666 -1.1067 0.74334 -1.72 0.95 s-1.24 0.31 -1.88 0.31 c-0.69334 0 -1.3467 -0.09334 -1.96 -0.28 s-1.15 -0.49 -1.61 -0.91 s-0.82334 -0.96666 -1.09 -1.64 s-0.4 -1.49 -0.4 -2.45 c0 -0.94666 0.13334 -1.7567 0.4 -2.43 s0.63 -1.2267 1.09 -1.66 s0.99666 -0.75334 1.61 -0.96 s1.2667 -0.31 1.96 -0.31 c0.42666 0 0.89332 0.06 1.4 0.18 s1.0133 0.3 1.52 0.54 l-1.32 2.16 c-0.22666 -0.10666 -0.49332 -0.18332 -0.79998 -0.22998 s-0.57332 -0.07 -0.79998 -0.07 c-0.61334 0 -1.1233 0.21666 -1.53 0.65 s-0.61 1.1433 -0.61 2.13 c0 0.50666 0.05334 0.92 0.16 1.24 s0.25666 0.58 0.45 0.78 s0.42 0.34666 0.68 0.44 s0.54334 0.15334 0.85 0.18 c0.41334 0.04 0.82334 0.0066602 1.23 -0.1 s0.77 -0.28 1.09 -0.52 z M45.64 19.66 c-0.56 0.22666 -1.0966 0.37664 -1.61 0.44998 s-1.0833 0.11 -1.71 0.11 c-1.1333 0 -2.1266 -0.18 -2.98 -0.54 s-1.5633 -0.86334 -2.13 -1.51 s-0.99332 -1.4167 -1.28 -2.31 s-0.43 -1.8733 -0.43 -2.94 s0.14666 -2.0534 0.44 -2.96 s0.72334 -1.6867 1.29 -2.34 s1.27 -1.1633 2.11 -1.53 s1.8 -0.55 2.88 -0.55 c0.62666 0 1.1933 0.06 1.7 0.18 s1 0.28666 1.48 0.5 l-0.82 2.66 c-0.26666 -0.12 -0.56332 -0.22666 -0.88998 -0.32 s-0.71666 -0.14 -1.17 -0.14 c-2.3734 0 -3.56 1.5 -3.56 4.5 c0 1.5067 0.30666 2.62 0.92 3.34 s1.56 1.08 2.84 1.08 c0.42666 0 0.80332 -0.03 1.13 -0.09 s0.65 -0.15 0.97 -0.27 z M47.58 8.4 c0 0.01334 -0.09002 0.019961 -0.27002 0.019961 l-0.59 0 l-0.84 0 l1.36 -2.44 l3.36 0 l0 4.52 c0.28 -0.26666 0.62666 -0.50332 1.04 -0.70998 s0.90668 -0.31 1.48 -0.31 c1.1867 0 2.07 0.33 2.65 0.99 s0.87 1.71 0.87 3.15 l0 6.38 l-3.04 0 l0 -5.98 c0 -0.52 -0.12 -0.93334 -0.36 -1.24 s-0.60666 -0.46 -1.1 -0.46 c-0.42666 0 -0.79 0.11666 -1.09 0.35 s-0.45 0.67668 -0.45 1.33 l0 6 l-3.06 0 z M63.89999999999999 15.42 c-0.13334 -0.02666 -0.2733 -0.04338 -0.41996 -0.050038 s-0.27332 -0.01 -0.37998 -0.01 c-0.56 0 -1.0133 0.08666 -1.36 0.26 s-0.52 0.47334 -0.52 0.9 c0 0.26666 0.06334 0.47666 0.19 0.63 s0.28332 0.26668 0.46998 0.34002 s0.38332 0.11668 0.58998 0.13002 s0.38332 0.02 0.52998 0.02 c0.26666 0 0.56666 -0.03334 0.9 -0.1 l0 -2.12 z M62.85999999999999 13.219999999999999 c0.10666 0 0.24996 0.0033594 0.42996 0.01002 s0.38334 0.01666 0.61 0.03 c-0.01334 -0.52 -0.19668 -0.85666 -0.55002 -1.01 s-0.81 -0.23 -1.37 -0.23 c-0.30666 0 -0.66 0.03666 -1.06 0.11 s-0.83334 0.18334 -1.3 0.33 l-0.32 -1.1 c-0.04 -0.14666 -0.09666 -0.36 -0.17 -0.64 s-0.12334 -0.5 -0.15 -0.66 c0.66666 -0.22666 1.2967 -0.39 1.89 -0.49 s1.13 -0.15 1.61 -0.15 c1.4133 0 2.5066 0.33666 3.28 1.01 s1.16 1.75 1.16 3.23 l0 5.86 c-0.52 0.14666 -1.12 0.29 -1.8 0.43 s-1.4133 0.21 -2.2 0.21 c-0.69334 0 -1.3233 -0.06 -1.89 -0.18 s-1.0533 -0.32 -1.46 -0.6 s-0.72 -0.64666 -0.94 -1.1 s-0.33 -1.0067 -0.33 -1.66 s0.13666 -1.2 0.41 -1.64 s0.62668 -0.79 1.06 -1.05 s0.92 -0.44334 1.46 -0.55 s1.0833 -0.16 1.63 -0.16 z M69.17999999999999 12.059999999999999 l-1.24 0 l0 -2.52 l1.24 0 l0 -2.84 l3 0 l0 2.84 l2.48 0 l-1.4 2.52 l-1.18 0 l0.1 0.64 l0 3.14 c0 0.34666 0.02334 0.62666 0.07 0.84 s0.12 0.38 0.22 0.5 s0.22666 0.20334 0.38 0.25 s0.33 0.07 0.53 0.07 c0.14666 0 0.32666 -0.01666 0.54 -0.05 s0.44 -0.07 0.68 -0.11 l0.16 1.34 l0.12 1.2 c-0.38666 0.08 -0.74 0.14 -1.06 0.18 s-0.64666 0.06 -0.98 0.06 c-1.24 0 -2.16 -0.28666 -2.76 -0.86 s-0.9 -1.52 -0.9 -2.84 l0 -4.36 z"></path></g>
	</g>
</svg>
	